<svg xmlns="http://www.w3.org/2000/svg" viewBox="0 0 100 128" role="img" aria-label="Brasil BCN">
  <title>Brasil BCN</title>
  <defs>
    <clipPath id="c"><circle cx="50" cy="43" r="42"/></clipPath>
  </defs>
  <path d="M50,0 C22.4,0 0,22.4 0,50 C0,77.6 50,128 50,128 C50,128 100,77.6 100,50 C100,22.4 77.6,0 50,0Z" fill="#002776"/>
  <g clip-path="url(#c)">
    <rect x="0" y="0" width="100" height="55" fill="#001a5c"/>
    <rect x="43" y="20" width="5" height="35" fill="white" fill-opacity="0.95"/>
    <polygon points="40,20 45.5,10 51,20" fill="white" fill-opacity="0.95"/>
    <polygon points="45.5,10 43,14 48,14" fill="#FFDF00" fill-opacity="0.9"/>
    <rect x="52" y="22" width="5" height="33" fill="white" fill-opacity="0.95"/>
    <polygon points="49,22 54.5,12 60,22" fill="white" fill-opacity="0.95"/>
    <polygon points="54.5,12 52,16 57,16" fill="#FFDF00" fill-opacity="0.9"/>
    <rect x="31" y="28" width="4.5" height="27" fill="white" fill-opacity="0.82"/>
    <polygon points="29,28 33.25,20 37.5,28" fill="white" fill-opacity="0.82"/>
    <rect x="64.5" y="28" width="4.5" height="27" fill="white" fill-opacity="0.82"/>
    <polygon points="62.5,28 66.75,20 71,28" fill="white" fill-opacity="0.82"/>
    <rect x="21" y="34" width="3.5" height="21" fill="white" fill-opacity="0.60"/>
    <polygon points="19.5,34 22.75,28 26,34" fill="white" fill-opacity="0.60"/>
    <rect x="19" y="45" width="57" height="10" fill="white" fill-opacity="0.35"/>
    <path d="M80,55 L80,33 C80,27 88,27 88,33 L88,55 Z" fill="white" fill-opacity="0.42"/>
    <ellipse cx="84" cy="26" rx="4" ry="4" fill="white" fill-opacity="0.42"/>
    <path d="M8,55 L8,38 C14,40 15,49 15,55 Z" fill="white" fill-opacity="0.36"/>
    <path d="M21,16 Q23,13 25,16" stroke="white" stroke-width="0.7" fill="none" stroke-opacity="0.6"/>
    <path d="M27,12 Q29,9 31,12" stroke="white" stroke-width="0.7" fill="none" stroke-opacity="0.6"/>
    <path d="M34,17 Q36,14 38,17" stroke="white" stroke-width="0.7" fill="none" stroke-opacity="0.45"/>
    <path d="M0,55 Q12.5,52 25,55 Q37.5,58 50,55 Q62.5,52 75,55 Q87.5,58 100,55 L100,67 L0,67 Z" fill="#009C3B"/>
    <rect x="0" y="67" width="100" height="6" fill="#FFDF00"/>
    <rect x="0" y="73" width="100" height="13" fill="#3ABFBF"/>
    <rect x="1"  y="73" width="9" height="5" rx="0.8" fill="#2E8B57" transform="rotate(-4,5.5,75.5)"/>
    <rect x="11" y="72" width="9" height="5" rx="0.8" fill="#009C3B" transform="rotate(3,15.5,74.5)"/>
    <rect x="21" y="73" width="9" height="5" rx="0.8" fill="#0047AB" transform="rotate(-2,25.5,75.5)"/>
    <rect x="31" y="72" width="9" height="5" rx="0.8" fill="#1ABC9C" transform="rotate(4,35.5,74.5)"/>
    <rect x="41" y="73" width="9" height="5" rx="0.8" fill="#2E8B57" transform="rotate(-3,45.5,75.5)"/>
    <rect x="51" y="72" width="9" height="5" rx="0.8" fill="#4ECDC4" transform="rotate(2,55.5,74.5)"/>
    <rect x="61" y="73" width="9" height="5" rx="0.8" fill="#0047AB" transform="rotate(-4,65.5,75.5)"/>
    <rect x="71" y="72" width="9" height="5" rx="0.8" fill="#009C3B" transform="rotate(3,75.5,74.5)"/>
    <rect x="81" y="73" width="9" height="5" rx="0.8" fill="#1ABC9C" transform="rotate(-2,85.5,75.5)"/>
    <rect x="4"  y="79" width="9" height="5" rx="0.8" fill="#4ECDC4" transform="rotate(3,8.5,81.5)"/>
    <rect x="14" y="78" width="9" height="5" rx="0.8" fill="#2E8B57" transform="rotate(-3,18.5,80.5)"/>
    <rect x="24" y="79" width="9" height="5" rx="0.8" fill="#009C3B" transform="rotate(2,28.5,81.5)"/>
    <rect x="34" y="78" width="9" height="5" rx="0.8" fill="#0047AB" transform="rotate(-4,38.5,80.5)"/>
    <rect x="44" y="79" width="9" height="5" rx="0.8" fill="#1ABC9C" transform="rotate(3,48.5,81.5)"/>
    <rect x="54" y="78" width="9" height="5" rx="0.8" fill="#2E8B57" transform="rotate(-2,58.5,80.5)"/>
    <rect x="64" y="79" width="9" height="5" rx="0.8" fill="#009C3B" transform="rotate(4,68.5,81.5)"/>
    <rect x="74" y="78" width="9" height="5" rx="0.8" fill="#4ECDC4" transform="rotate(-3,78.5,80.5)"/>
    <rect x="84" y="79" width="9" height="5" rx="0.8" fill="#0047AB" transform="rotate(2,88.5,81.5)"/>
  </g>
  <path d="M50,0 C22.4,0 0,22.4 0,50 C0,77.6 50,128 50,128 C50,128 100,77.6 100,50 C100,22.4 77.6,0 50,0Z" fill="none" stroke="#001248" stroke-width="2"/>
</svg>
