<svg xmlns="http://www.w3.org/2000/svg" viewBox="0 0 200 56" fill="none">
  <!-- Pin compact -->
  <path d="M22 3C14.3 3 8 9.3 8 17c0 10 14 29 14 29s14-19 14-29C36 9.3 29.7 3 22 3z" fill="#002776"/>
  <path d="M10 18.5 Q22 14 34 18.5 Q22 24 10 18.5z" fill="#009C3B"/>
  <path d="M10 21.5 Q22 17.5 34 21.5 Q22 26.5 10 21.5z" fill="#FFDF00"/>
  <g fill="white" opacity="0.93">
    <rect x="20.8" y="7" width="2.4" height="10" rx="0.4"/>
    <polygon points="22,5 20.2,7 23.8,7"/>
    <rect x="15.5" y="9.5" width="2" height="7" rx="0.4"/>
    <polygon points="16.5,7.5 14.8,9.5 18.2,9.5"/>
    <rect x="26.5" y="9.5" width="2" height="7" rx="0.4"/>
    <polygon points="27.5,7.5 25.8,9.5 29.2,9.5"/>
    <rect x="14" y="16.5" width="16" height="1.8" rx="0.4"/>
  </g>
  <!-- Wordmark -->
  <text x="46" y="28" font-family="'Helvetica Neue', Arial, sans-serif" font-weight="800" font-size="22" fill="#002776" letter-spacing="-0.3">Brasil</text>
  <text x="46" y="28" font-family="'Helvetica Neue', Arial, sans-serif" font-weight="800" font-size="22" fill="#009C3B" letter-spacing="-0.3" dx="66">BCN</text>
  <text x="47" y="41" font-family="'Helvetica Neue', Arial, sans-serif" font-weight="500" font-size="8.5" fill="#94a3b8" letter-spacing="1.2">COMUNIDADE • BARCELONA</text>
</svg>
